# xmcd CD database file
#
# Track frame offsets:
#	150
#	21710
#	38881
#	57620
#	75199
#	92763
#	114822
#	142757
#	166840
#	195234
#	217200
#	234253
#	275855
#	309703
#
# Disc length: 4453 seconds
#
# Revision: 0
# Processed by: cddbd v1.5.2PL0 Copyright (c) Steve Scherf et al.
# Submitted via: CDex 1.70beta2
#
DISCID=bc11630e
DTITLE=Jeff Lang - Chimeradour
DYEAR=2009
DGENRE=Blues
TTITLE0=Two Worlds
TTITLE1=Home To You
TTITLE2=I Want To Believe
TTITLE3=I Don't Like Him Being In Here
TTITLE4=Edge Of The Light
TTITLE5=Slow Rooms And Fast-Blurred Faces
TTITLE6=South
TTITLE7=Another One Of Those Days
TTITLE8=The End Of The Rainbow
TTITLE9=Half A Tank Of Hope
TTITLE10=Things Are Coming Back My Way
TTITLE11=The Janitor
TTITLE12=South (Acoustic, Featuring Bec Matthews)
TTITLE13=Walk Out On St Georges
EXTD=YEAR: 2009
EXTT0=
EXTT1=
EXTT2=
EXTT3=
EXTT4=
EXTT5=
EXTT6=
EXTT7=
EXTT8=
EXTT9=
EXTT10=
EXTT11=
EXTT12=
EXTT13=
PLAYORDER=
